<svg width="195" height="384" viewBox="0 0 195 384" fill="none" xmlns="http://www.w3.org/2000/svg">
<path d="M8.576 256C6.44267 256 5.376 254.933 5.376 252.8V88.576C5.376 86.4427 6.44267 85.376 8.576 85.376H87.68C89.6427 85.376 91.3493 86.0587 92.8 87.424L118.4 113.024C119.851 114.475 120.576 116.181 120.576 118.144V180.864C120.576 182.912 119.851 184.619 118.4 185.984L92.8 211.584C91.3493 213.035 89.6427 213.76 87.68 213.76H58.624V252.8C58.624 254.933 57.5573 256 55.424 256H8.576ZM61.824 161.28C65.3227 161.28 68.1387 160.171 70.272 157.952C72.4907 155.733 73.6 152.917 73.6 149.504C73.6 146.091 72.4907 143.317 70.272 141.184C68.1387 138.965 65.3227 137.856 61.824 137.856C58.4107 137.856 55.5947 138.965 53.376 141.184C51.2427 143.317 50.176 146.091 50.176 149.504C50.176 152.917 51.2427 155.733 53.376 157.952C55.5947 160.171 58.4107 161.28 61.824 161.28Z" fill="#005B60"/>
<path d="M77.576 320C75.4427 320 74.376 318.933 74.376 316.8V152.576C74.376 150.443 75.4427 149.376 77.576 149.376H156.68C158.643 149.376 160.349 150.059 161.8 151.424L187.4 177.024C188.851 178.475 189.576 180.181 189.576 182.144V244.864C189.576 246.912 188.851 248.619 187.4 249.984L161.8 275.584C160.349 277.035 158.643 277.76 156.68 277.76H127.624V316.8C127.624 318.933 126.557 320 124.424 320H77.576ZM130.824 225.28C134.323 225.28 137.139 224.171 139.272 221.952C141.491 219.733 142.6 216.917 142.6 213.504C142.6 210.091 141.491 207.317 139.272 205.184C137.139 202.965 134.323 201.856 130.824 201.856C127.411 201.856 124.595 202.965 122.376 205.184C120.243 207.317 119.176 210.091 119.176 213.504C119.176 216.917 120.243 219.733 122.376 221.952C124.595 224.171 127.411 225.28 130.824 225.28Z" fill="#005B60"/>
</svg>
