<?xml version="1.0" encoding="utf-8" ?><svg xmlns="http://www.w3.org/2000/svg" xmlns:xlink="http://www.w3.org/1999/xlink" width="1024" height="1024" viewBox="0 0 1024 1024"><path d="M384.12 262.561C409.239 260.288 407.655 283.509 407.17 301.121C407.005 307.105 407.044 313.309 407.039 319.31L407.024 409.376L407.035 438.218C407.105 476.489 411.862 469.011 445.822 470.048C445.095 461.084 445.479 447.476 445.477 438.125L445.482 381.145L445.455 344.686C445.451 338.036 445.196 331.136 445.923 324.541C446.202 315.201 460.432 304.654 469.212 307.931C481.755 312.612 496.494 321.985 507.958 328.855L548.524 353.133L650.235 413.325L722.434 455.994C731.869 461.583 741.403 467.045 750.852 472.595C762.941 479.696 764.309 495.143 754.899 505.092C751.223 508.978 747.89 510.792 743.243 513.427C724.922 523.801 705.725 536.177 687.451 547.07L546.3 631.348L506.95 654.993C497.614 660.708 475.642 675.862 465.501 676.084C460.155 676.176 455.01 674.053 451.286 670.218C444.077 662.908 445.454 651.05 445.46 641.446L445.475 613.709L445.385 512.317C433.964 511.318 419.275 512.485 407.586 512.195C401.87 512.053 396.67 512.621 390.819 511.656C387.189 511.07 383.691 509.843 380.491 508.032C363.94 498.666 367.205 481.067 367.198 464.723L367.185 419.7L367.127 336.036C367.103 318.501 366.863 301.097 367.504 283.564C367.945 271.529 371.515 265.493 384.12 262.561ZM600.404 551.97C614.528 543.388 628.703 534.891 642.928 526.478C650.419 522.073 659.572 517.179 666.66 512.296C645.955 511.142 618.103 511.946 596.896 511.964L485.532 512.004L485.545 575.909C485.545 581.923 484.618 612.187 487.268 616.096C489.581 617.243 491.493 616.3 493.785 615.125C505.686 609.027 517.376 601.499 528.772 594.543L573.259 567.979C581.962 562.817 591.642 556.803 600.404 551.97ZM485.754 469.834C543.482 470.956 602.742 468.938 660.5 469.953L661.783 469.309C661.96 468.52 662.203 467.659 661.486 467.121C653.336 460.995 637.6 452.464 629.435 447.62L541.047 395.629C530.622 389.61 520.278 383.451 510.018 377.153C503.876 373.43 494.331 367.315 487.892 364.562C487.058 365.497 486.209 366.369 486.165 367.716C485.192 397.469 486.092 427.31 485.822 457.082C485.784 461.319 485.674 465.611 485.754 469.834Z"/><path d="M383.602 546.541C389.108 546.143 391.538 546.584 396.687 548.902C399.516 550.104 404.869 554.711 405.488 557.825C407.917 570.057 407.064 584.107 407.061 596.564L407.05 645.267L407.069 681.08C407.096 688.287 407.17 695.424 406.99 702.63C406.712 713.71 400.746 718.508 390.606 721.475C383.103 721.949 370.531 718.013 368.823 709.748C366.208 697.091 367.124 681.999 367.141 668.955L367.14 619.335C367.132 602.403 366.836 585.45 367.15 568.528C367.372 556.486 371.877 549.945 383.602 546.541Z"/></svg>